<?xml version="1.0" standalone="no"?>
<!DOCTYPE svg PUBLIC "-//W3C//DTD SVG 20010904//EN"
 "http://www.w3.org/TR/2001/REC-SVG-20010904/DTD/svg10.dtd">
<svg version="1.0" xmlns="http://www.w3.org/2000/svg"
 width="259.000000pt" height="193.000000pt" viewBox="0 0 259.000000 193.000000"
 preserveAspectRatio="xMidYMid meet">

<g transform="translate(0.000000,193.000000) scale(0.100000,-0.100000)"
fill="#000000" stroke="none">
<path d="M0 965 l0 -965 1295 0 1295 0 0 965 0 965 -1295 0 -1295 0 0 -965z
m658 -546 c31 2 32 1 32 -39 0 -36 -2 -40 -25 -40 -14 0 -28 7 -31 15 -16 41
-68 -2 -56 -47 9 -34 31 -44 62 -26 25 14 31 14 41 2 16 -19 5 -42 -26 -54
-94 -36 -175 35 -145 126 14 42 64 77 95 67 11 -3 35 -5 53 -4z m1195 -3 c15
-8 27 -11 27 -5 0 5 11 9 25 9 22 0 25 -4 25 -35 0 -32 -3 -35 -29 -35 -16 0
-31 6 -35 15 -6 17 -32 20 -41 5 -3 -5 18 -21 48 -34 67 -29 80 -59 41 -93
-27 -25 -64 -29 -95 -13 -13 7 -19 7 -19 0 0 -5 -13 -10 -30 -10 -28 0 -30 3
-30 35 0 32 2 35 29 35 17 0 33 -4 36 -10 8 -13 42 -13 50 0 3 5 -12 14 -34
20 -51 13 -71 34 -71 71 0 24 6 33 33 44 40 18 37 18 70 1z m260 2 c36 2 37 2
37 -33 0 -31 -3 -35 -26 -35 -14 0 -32 7 -40 15 -18 17 -44 20 -44 4 0 -5 17
-17 38 -26 50 -20 72 -41 72 -69 0 -43 -72 -69 -121 -44 -13 7 -19 7 -19 0 0
-5 -11 -10 -25 -10 -22 0 -25 4 -25 35 0 32 2 35 29 35 17 0 33 -4 36 -10 8
-12 45 -13 45 -1 0 4 -21 16 -46 26 -56 21 -74 53 -51 89 17 26 49 37 82 27
11 -3 37 -4 58 -3z m-1293 -18 c0 -11 -4 -20 -10 -20 -6 0 -10 -27 -10 -60 0
-33 4 -60 10 -60 6 0 10 -9 10 -20 0 -17 -7 -20 -47 -20 l-48 0 0 100 0 100
48 0 c40 0 47 -3 47 -20z m139 -27 c28 -44 31 -46 31 -21 0 15 -4 30 -10 33
-5 3 -10 13 -10 21 0 10 13 14 50 14 37 0 50 -4 50 -14 0 -8 -4 -18 -10 -21
-5 -3 -10 -42 -10 -86 l0 -79 -35 0 c-30 0 -39 6 -70 52 l-35 53 0 -33 c0 -17
5 -32 10 -32 6 0 10 -9 10 -20 0 -17 -7 -20 -45 -20 -38 0 -45 3 -45 20 0 11
5 20 10 20 6 0 10 27 10 60 0 33 -4 60 -10 60 -5 0 -10 9 -10 20 0 17 7 20 44
20 41 0 45 -3 75 -47z m311 17 c0 -27 -3 -30 -30 -30 -16 0 -30 5 -30 10 0 6
-9 10 -20 10 -11 0 -20 -7 -20 -15 0 -10 10 -15 30 -15 23 0 30 -4 30 -20 0
-16 -7 -20 -30 -20 -25 0 -30 -4 -30 -25 0 -18 5 -25 19 -25 10 0 21 7 25 15
3 8 17 15 31 15 22 0 25 -4 25 -35 l0 -35 -90 0 c-83 0 -90 1 -90 20 0 11 5
20 10 20 6 0 10 27 10 60 0 33 -4 60 -10 60 -5 0 -10 9 -10 20 0 19 7 20 90
20 l90 0 0 -30z m180 10 c11 -11 20 -29 20 -40 0 -29 -36 -60 -70 -60 -23 0
-30 -4 -30 -20 0 -11 5 -20 10 -20 6 0 10 -9 10 -20 0 -17 -7 -20 -50 -20 -43
0 -50 3 -50 20 0 11 5 20 10 20 6 0 10 27 10 60 0 33 -4 60 -10 60 -5 0 -10 9
-10 20 0 18 7 20 70 20 57 0 74 -4 90 -20z m221 -52 c12 -40 28 -78 35 -84 8
-6 14 -19 14 -28 0 -13 -11 -16 -60 -16 -53 0 -60 2 -60 20 0 11 7 20 16 20 8
0 12 5 9 10 -3 6 -19 10 -36 10 -16 0 -29 -4 -29 -10 0 -5 5 -10 10 -10 6 0
10 -9 10 -20 0 -17 -7 -20 -45 -20 -38 0 -45 3 -45 20 0 11 4 20 8 20 14 0 41
103 35 133 l-5 27 61 0 60 0 22 -72z"/>
<path d="M1370 355 c0 -27 6 -30 29 -16 17 11 7 41 -14 41 -9 0 -15 -9 -15
-25z"/>
<path d="M1587 345 c-8 -20 -4 -29 11 -24 5 2 6 13 2 23 -6 19 -7 19 -13 1z"/>
</g>
</svg>
